<?xml version="1.0" encoding="utf-8" ?>
<svg xmlns="http://www.w3.org/2000/svg" xmlns:xlink="http://www.w3.org/1999/xlink" width="675" height="406">
	<path fill="#F7F8F7" transform="scale(0.65918 0.396484)" d="M0 0L1024 0L1024 1024L0 1024L0 0Z"/>
	<path fill="#212E3E" transform="scale(0.65918 0.396484)" d="M698.319 592.531C698.597 592.515 698.875 592.496 699.153 592.483C701.503 592.376 702.956 592.658 704.847 594.161C708.842 597.336 712.254 601.184 715.8 604.836C722.855 612.1 729.741 619.541 736.863 626.737C746.992 636.97 758.161 646.201 768.671 656.05C771.366 654.852 776.256 652.138 779.196 653.612C781.977 655.007 786.904 665.881 789.133 669.181C795.73 678.952 816.77 694.32 820.079 701.78C821.113 704.111 821.509 706.9 820.448 709.292C816.219 718.825 767.315 747.403 756.319 751.386C750.104 743.958 746.189 732.962 742.005 724.18C735.659 710.861 729.208 697.487 720.924 685.249C716.577 696.468 712.755 709.044 710.222 720.797C708.412 727.854 707.701 735.202 707.526 742.468C709.248 745.997 710.764 750.148 713.288 753.167C720.011 761.209 732.912 757.358 740.715 764.222C742.484 765.778 743.456 767.765 743.503 770.129C743.563 773.182 742.354 776.577 740.079 778.669C737.73 780.829 732.956 781.073 729.891 781.343C718.439 782.35 706.476 781.701 694.964 781.713L627.737 781.594C641.106 773.31 658.69 772.469 674.046 771.411C671.439 755.041 667.853 753.125 677.698 737.514C676.336 733.631 675.169 729.829 674.27 725.812C676.313 720.094 679.884 715.11 681.437 709.165C683.415 701.597 683.709 693.749 684.729 686.024C685.829 677.683 687.831 669.349 690.283 661.3C693.592 650.434 703.512 634.757 703.891 624.694C704.272 614.575 698.965 606.495 696.746 597.106C696.255 595.028 697.248 594.137 698.319 592.531Z"/>
	<path fill="#BFBEBF" transform="scale(0.65918 0.396484)" d="M780.023 665.305C782.367 666.479 786.856 674.926 789.032 677.472C796.511 686.224 806.237 692.967 814.044 701.369C815.368 702.795 816.213 703.864 815.995 705.907C815.643 709.208 812.039 711.838 809.74 713.884C808.964 708.095 806.093 703.488 802.577 698.943C799.543 695.02 792.832 687.305 787.741 686.646L787.271 687.265C788.461 689.629 790.855 691.376 792.652 693.297C798.362 699.398 803.743 707.395 804.941 715.747C801.231 719.401 796.614 722.223 792.287 725.09C780.976 732.38 769.903 739.354 757.674 745.025C748.987 727.705 741.771 708.509 730.933 692.48C746.394 688.612 768.795 676.457 780.023 665.305Z"/>
	<path fill="#212E3E" transform="scale(0.65918 0.396484)" d="M754.642 723.274C758.09 724.266 761.004 726.795 764.483 727.919C766.581 728.596 769.329 728.241 771.172 729.288C771.869 729.684 771.829 730.063 772.077 730.759L771.17 732.44C767.372 733.284 764.301 733.018 760.632 731.762C758.329 730.974 755.086 729.429 754.199 726.934C753.682 725.48 754.104 724.613 754.642 723.274Z"/>
	<path fill="#F7F8F7" transform="scale(0.65918 0.396484)" d="M737.362 635.29C745.647 640.976 755.488 651.646 763.678 658.564C755.789 662.559 748.094 667.061 740.345 671.327C734.559 674.814 728.8 678.687 722.627 681.446C723.972 675.163 726.387 668.93 728.472 662.865C731.618 653.712 734.736 644.609 737.362 635.29Z"/>
	<path fill="#BFBEBF" transform="scale(0.65918 0.396484)" d="M691.045 745.189C694.29 745.301 699.323 744.275 702.263 745.455C703.839 746.087 703.934 746.943 704.607 748.37C705.696 752.23 707.777 755.036 710.209 758.127C719.425 766.096 732.942 762.654 737.799 768.964C738.616 770.025 738.589 770.71 738.473 771.985C737.223 773.964 735.634 774.778 733.377 775.334C725.557 777.26 711.565 774.953 704.814 770.612C699.67 767.305 696.828 762.039 695.47 756.222C695.516 755.382 695.392 754.526 695.32 753.688C693.333 751.552 692.198 747.877 691.045 745.189Z"/>
	<path fill="#F7F8F7" transform="scale(0.65918 0.396484)" d="M691.045 745.189C694.29 745.301 699.323 744.275 702.263 745.455C703.839 746.087 703.934 746.943 704.607 748.37C704.591 750.141 704.866 752.336 703.888 753.872C702.562 754.795 701.436 754.724 699.891 754.757L695.32 753.688C693.333 751.552 692.198 747.877 691.045 745.189Z"/>
	<path fill="#A9A7AA" transform="scale(0.65918 0.396484)" d="M704.607 748.37C705.696 752.23 707.777 755.036 710.209 758.127C707.344 757.52 704.634 757.579 701.724 757.642C702.227 756.554 702.491 756.478 702.222 755.259L699.891 754.757C701.436 754.724 702.562 754.795 703.888 753.872C704.866 752.336 704.591 750.141 704.607 748.37Z"/>
	<path fill="#333F4E" transform="scale(0.65918 0.396484)" d="M695.32 753.688L699.891 754.757L702.222 755.259C702.491 756.478 702.227 756.554 701.724 757.642C699.53 757.619 697.545 756.87 695.47 756.222C695.516 755.382 695.392 754.526 695.32 753.688Z"/>
	<path fill="#BFBEBF" transform="scale(0.65918 0.396484)" d="M775.973 658.451C776.326 658.537 776.731 658.819 777.053 658.994L777.112 659.986C776.512 661.4 775.746 662.371 774.666 663.468C766.093 672.172 741.224 686.691 728.591 686.644C727.845 685.93 728.115 686.372 727.847 685.282C733.576 679.461 767.205 662.458 775.973 658.451Z"/>
	<path fill="#F7F8F7" transform="scale(0.65918 0.396484)" d="M688.123 762.162C688.945 762.433 689.386 762.597 689.995 763.25C691.609 764.982 692.791 767.35 694.296 769.218C695.864 771.165 698.027 772.881 699.782 774.704C698.312 775.044 696.779 774.959 695.274 774.985L683.129 774.681C684.09 770.444 684.503 764.926 688.123 762.162Z"/>
	<path fill="#212E3E" transform="scale(0.65918 0.396484)" d="M291.286 396.217C295.05 396.015 298.806 395.983 302.539 396.598C309.307 397.713 315.617 400.745 319.6 406.54C324.146 413.156 325.181 421.788 323.604 429.54C321.379 440.47 315.826 445.856 306.856 451.84C310.314 452.891 313.345 453.978 316.22 456.285C321.454 460.483 324.106 466.6 324.708 473.181C325.624 483.184 322.809 494.058 316.297 501.816C307.578 512.204 294.321 515.377 281.38 516.574C265.444 518.854 248.933 519.192 232.867 520.598L244.231 399.626C259.929 398.693 275.582 397.095 291.286 396.217Z"/>
	<path fill="#F7F8F7" transform="scale(0.65918 0.396484)" d="M283.085 463.711C288.412 463.119 295.707 462.681 300.162 466.085C302.669 468.001 303.903 470.915 304.248 473.986C304.872 479.546 303.512 486.396 299.854 490.701C293.777 497.853 283.048 498.099 274.447 498.607C267.993 499.524 261.344 499.862 254.848 500.517C255.624 488.875 256.994 477.211 258.108 465.593C266.412 464.754 274.759 464.28 283.085 463.711Z"/>
	<path fill="#F7F8F7" transform="scale(0.65918 0.396484)" d="M282.465 415.213C287.77 414.615 294.445 414.425 298.974 417.646C301.42 419.385 302.912 422.042 303.361 424.987C304.074 429.651 302.461 434.934 299.573 438.616C294.758 444.753 287.832 445.598 280.619 446.364C273.612 447.069 266.593 447.647 259.566 448.1C260.956 437.628 261.712 426.96 262.568 416.433C269.196 415.961 275.829 415.554 282.465 415.213Z"/>
	<path fill="#212E3E" transform="scale(0.65918 0.396484)" d="M620.539 250.963C629.2 244.599 644.226 243.962 654.528 245.53C658.383 246.117 662.198 247.052 665.605 249.006C668.827 255.378 670.834 262.207 673.718 268.703C677.257 271.03 687.07 274.992 687.956 279.197C688.153 280.13 687.811 280.462 687.443 281.284C684.086 283.978 678.229 284.071 674.141 283.628C673.455 283.552 672.769 283.462 672.086 283.357C672.965 288.629 674.107 291.796 677.058 296.244C677.712 297.229 678.815 298.445 679.287 299.491C679.77 300.558 679.097 302.377 678.567 303.258C673.49 306.727 673.527 307.045 672.331 313.244C671.734 316.333 671.53 319.41 671.391 322.547C668.121 322.421 664.842 322.338 661.574 322.162C659.387 324.638 656.087 328.208 656.184 331.731C656.256 334.331 662.338 343.01 663.934 345.716C668.805 354.035 673.205 362.62 677.112 371.433L669.901 372.318C666.254 373.145 661.879 373.227 658.131 373.348C657.286 373.472 656.35 373.675 655.498 373.671C655.455 373.671 654.156 373.603 653.963 373.494C652.606 372.726 647.442 361.173 646.331 359.056C641.009 348.918 634.845 339.339 626.553 331.376C624.998 332.398 623.571 333.632 622.122 334.799C633.208 346.775 640.815 360.035 648.365 374.378C645.942 374.563 643.523 374.911 641.111 375.201C637.125 364.377 632.268 353.593 623.457 345.857C620.876 346.052 617.936 345.943 615.613 347.162C614.894 348.314 614.919 348.277 615.133 349.621C617.406 350.692 620.183 348.693 622.306 349.888C620.274 352.309 616.433 351.661 614.228 354.343C614.897 354.745 615.552 355.263 616.319 355.428C618.822 355.021 621.102 354.426 623.578 355.226L624.295 355.915C623.287 357.143 622.148 357.436 620.587 357.604C619.713 357.698 618.831 357.748 617.953 357.802L616.053 358.219C615.485 359.192 615.365 359.344 615.398 360.457C617.923 362.36 622.812 359.921 626.058 360.954L626.251 363.061C623.068 363.297 619.313 363.17 616.507 364.812L616.266 365.66C617.418 366.73 619.162 366.78 620.665 366.725C623.375 366.628 626.749 365.824 629.371 366.53L629.493 367.159C626.105 370.165 619.65 368.365 617.19 371.026L617.202 372.048C618.073 372.863 618.54 373.137 619.777 373.079C620.826 373.03 621.907 372.805 622.943 372.632C623.683 372.913 623.983 372.83 624.36 373.589C624.765 374.406 624.719 374.856 624.655 375.733C621.005 379.162 592.478 380.787 585.859 381.59C586.98 363.845 592.466 345.357 606.239 333.264C607.869 331.84 609.536 330.46 611.238 329.124C612.943 323.999 614.535 318.062 619.752 315.396C621.24 314.636 622.858 314.197 624.468 313.782C621.058 302.728 615.581 294.703 614.661 282.695C611.118 281.255 607.146 279.672 605.582 275.855C604.828 274.015 604.966 272.016 605.755 270.208C607.824 265.465 612.853 263.078 617.292 261.057C618.145 257.508 618.933 254.258 620.539 250.963Z"/>
	<path fill="#BFBEBF" transform="scale(0.65918 0.396484)" d="M654.038 343.317C660.97 352.132 663.146 362.313 668.019 372.024L669.901 372.318C666.254 373.145 661.879 373.227 658.131 373.348L658.426 372.731C658.361 365.742 653.394 354.905 650.76 348.196C651.794 346.533 652.932 344.933 654.038 343.317Z"/>
	<path fill="#F7F8F7" transform="scale(0.65918 0.396484)" d="M658.469 280.272L668.168 282.691C668.308 292.344 669.435 293.325 674.335 301.328L668.146 305.432C668.229 306.199 668.294 306.967 668.342 307.737C668.526 310.966 668.695 314.269 666.407 316.792C664.8 317.474 664.152 317.288 662.446 317.114C661.4 316.473 660.381 315.812 659.529 314.918C655.395 310.579 655.184 304.073 655.265 298.451C654.094 297.332 653.123 296.509 652.597 294.922C653.111 293.348 655.048 293.604 656.002 292.008C655.832 290.684 655.714 289.514 655.788 288.173L656.51 287.715C657.891 288.594 659.271 289.433 660.704 290.224L661.45 289.808C661.734 289.186 661.84 289.051 661.956 288.306C662.356 285.727 659.918 282.169 658.469 280.272Z"/>
	<path fill="#BFBEBF" transform="scale(0.65918 0.396484)" d="M639.837 250.216C647.709 249.829 655.028 250.574 662.366 253.522C664.2 256.725 665.172 260.387 666.078 263.938L655.64 260.557C649.816 258.327 643.075 256.638 636.881 255.85C633.46 255.414 629.575 255.743 626.318 254.687L626.154 253.806C629.022 250.587 635.789 250.52 639.837 250.216Z"/>
	<path fill="#BFBEBF" transform="scale(0.65918 0.396484)" d="M629.467 262.237C635.26 261.606 641.215 262.033 646.933 263.097C656.047 264.794 673.238 270.777 678.661 278.762C666.504 278.313 654.191 271.282 643.103 266.826C638.606 265.019 634.081 263.676 629.467 262.237Z"/>
	<path fill="#F7F8F7" transform="scale(0.65918 0.396484)" d="M642.109 309.852L642.966 310.778C643.104 311.655 643.284 312.485 643.516 313.342L643.938 313.532L644.451 312.99C644.758 312.901 645.056 312.679 645.371 312.725C646.694 312.916 650.734 317.007 652.08 318.002C653.669 319.177 655.505 320.105 657.239 321.049C654.867 324.111 653.231 327.445 651.914 331.067C646.506 326.597 640.812 322.353 635.783 317.454C637.763 314.772 639.856 312.308 642.109 309.852Z"/>
	<path fill="#F7F8F7" transform="scale(0.65918 0.396484)" d="M634.036 323.181C640.135 325.66 648.466 335.024 653.05 340.029C652.076 341.413 651.18 342.858 650.259 344.278C649.676 345.206 649.761 345.411 648.693 345.823C647.204 343.491 634.184 325.559 634.117 325.221C633.983 324.554 634.063 323.861 634.036 323.181Z"/>
	<path fill="#212E3E" transform="scale(0.65918 0.396484)" d="M629.688 392.704C631.107 392.518 632.291 392.332 633.71 392.675C634.362 396.181 631.977 410.311 631.51 414.705C628.982 438.499 625.981 462.429 624.184 486.278C617.444 486.802 610.709 487.486 603.976 488.102L605.275 476.829L604.911 477.306L604.297 478.094C603.805 478.733 603.322 479.378 602.814 480.005C597.315 486.793 588.236 490.612 579.697 491.483C569.382 492.534 561.731 489.466 553.86 482.992C553.226 482.395 552.66 481.787 552.09 481.125C543.695 471.375 541.606 456.85 542.57 444.414C543.741 429.302 549.786 414.506 561.51 404.562C569.335 397.926 579.322 393.894 589.671 394.859C599.755 395.799 606.68 401.208 612.85 408.75C613.256 403.709 613.74 398.674 614.301 393.648C619.451 393.52 624.556 393.125 629.688 392.704Z"/>
	<path fill="#F7F8F7" transform="scale(0.65918 0.396484)" d="M586.796 413.65C590.571 413.508 594.321 414.319 597.699 416.01C602.931 418.622 606.661 423.541 608.336 429.086C611.177 438.491 608.431 449.605 603.725 457.952C599.642 465.196 594.36 470.068 586.209 472.351C580.896 473.186 576.245 473.192 571.665 469.959C566.726 466.472 564.226 460.539 563.381 454.717C561.813 443.909 564.741 431.313 571.436 422.615C575.565 417.25 580.14 414.551 586.796 413.65Z"/>
	<path fill="#212E3E" transform="scale(0.65918 0.396484)" d="M494.593 402.688C497.781 402.232 501.427 402.333 504.615 402.757C513.895 403.993 521.967 408.645 527.587 416.15C536.568 428.146 536.093 441.031 534.16 455.12C512.082 456.73 490.063 459.029 468.006 460.886C468.574 465.248 469.465 469.03 472.142 472.669C475.601 477.37 481.042 480.123 486.757 480.889C497.769 482.365 508.788 477.569 517.3 470.965L520.622 475.022L527.945 484.279C518.877 492.168 508.993 496.91 497.013 498.468C484.947 500.038 472.367 498.244 462.572 490.589C454.452 484.243 449.942 474.921 448.692 464.805C446.831 449.739 450.129 434.345 459.534 422.277C468.556 410.7 480.123 404.429 494.593 402.688Z"/>
	<path fill="#F7F8F7" transform="scale(0.65918 0.396484)" d="M492.527 421.091C497.516 420.553 502.765 420.764 507.101 423.585C513.293 427.614 515.263 434.557 516.54 441.386C508.06 442.526 499.41 442.848 490.88 443.616C483.759 443.751 476.214 445.147 469.135 446.074C470.441 441.716 471.971 437.458 474.407 433.59C478.679 426.811 484.758 422.863 492.527 421.091Z"/>
	<path fill="#212E3E" transform="scale(0.65918 0.396484)" d="M790.585 378.291L797.575 377.822C789.574 398.102 780.449 417.858 771.867 437.887C766.223 451.237 760.326 464.478 754.179 477.603C750.677 485.068 747.303 492.835 742.826 499.765C739.119 505.503 734.734 510.597 728.579 513.746C720.388 517.937 711.105 517.874 702.486 515.123C703.728 509.525 704.981 503.953 705.865 498.284C709.854 499.242 713.494 500.028 717.539 498.694C726.942 495.591 731.62 482.269 735.514 474.135L738.419 468.304C734.771 458.455 731.922 448.419 728.843 438.391C723.355 420.521 718.078 402.68 713.149 384.646C719.611 384.394 726.082 383.633 732.487 382.764C734.361 391.822 737.588 400.715 740.305 409.555C743.569 420.176 746.538 430.883 749.858 441.489C757.95 420.634 768.364 400.711 775.995 379.638C780.788 378.835 785.741 378.658 790.585 378.291Z"/>
	<path fill="#212E3E" transform="scale(0.65918 0.396484)" d="M682.05 386.223C684.129 386.26 686.202 386.328 688.272 386.531C696.398 387.331 702.451 390.451 707.69 396.781C705.293 401.301 702.581 405.613 699.784 409.892C696.481 407.63 693.136 405.86 689.25 404.863C683.752 403.453 675.212 403.229 670.334 406.317C667.929 407.84 665.757 410.266 665.21 413.136C663.252 423.392 680.803 426.09 687.573 428.937C692.953 431.2 698.494 434.474 701.903 439.326C705.734 444.78 706.638 452.517 705.419 458.981C703.952 466.75 699.009 473.169 692.496 477.44C683.046 483.638 670.577 485.114 659.657 482.772C651.974 480.827 644.045 477.153 638.274 471.637C640.632 466.052 643.319 460.611 646.32 455.344C652.767 460.855 659.521 465.342 668.249 465.942C673.214 466.283 678.957 465.304 682.674 461.737C684.37 460.11 686.465 457.292 686.37 454.802C686.048 446.325 668.256 442.593 661.989 439.936C658.375 438.405 654.806 436.431 651.846 433.835C647.628 430.135 645.278 425.373 644.968 419.768C644.541 412.046 647.527 403.256 652.789 397.572C660.582 389.155 671.019 386.661 682.05 386.223Z"/>
	<path fill="#212E3E" transform="scale(0.65918 0.396484)" d="M400.346 380.709C401.702 380.508 402.619 380.362 403.979 380.684C404.603 381.857 404.501 382.286 404.441 383.624C403.968 394.139 402.299 404.841 401.385 415.358L393.084 506.82L377.091 508.291C375.716 508.459 374.295 508.856 373.037 508.136C372.335 506.314 384.079 394.958 385.259 382.033L400.346 380.709Z"/>
	<path fill="#212E3E" transform="scale(0.65918 0.396484)" d="M440.866 377.749C441.632 377.588 441.175 377.601 442.218 377.978C442.361 382.613 441.409 387.664 440.963 392.317L438.586 419.073L434.044 469.465C433.05 480.761 432.335 492.161 430.892 503.402C424.987 503.583 418.924 504.227 413.071 505.026L411.556 504.923C410.776 503.741 410.979 502.532 411.048 501.176C411.181 498.593 411.776 496.049 411.996 493.473C412.943 482.399 413.974 471.332 415.088 460.274C417.728 433.211 420.218 406.133 422.557 379.042C428.652 378.538 434.765 378.176 440.866 377.749Z"/>
	<path fill="#212E3E" transform="scale(0.65918 0.396484)" d="M362.499 417.794L362.818 418.152C362.641 430.117 360.775 442.508 359.647 454.452C358.048 473.023 356.326 491.583 354.482 510.132C348.042 510.732 341.593 511.229 335.137 511.621C334.784 511.173 334.737 510.654 334.72 510.081C334.637 507.252 335.31 503.925 335.595 501.075C336.251 494.681 336.869 488.282 337.447 481.88C339.352 460.939 340.822 439.984 343.164 419.08L362.499 417.794Z"/>
	<path fill="#212E3E" transform="scale(0.65918 0.396484)" d="M687.7 536.947C695.432 535.382 703.407 538.099 708.576 544.057C713.745 550.016 715.309 558.294 712.669 565.728C710.028 573.161 703.593 578.599 695.823 579.961C684.025 582.031 672.755 574.233 670.532 562.463C668.31 550.693 675.96 539.322 687.7 536.947Z"/>
	<path fill="#F7F8F7" transform="scale(0.65918 0.396484)" d="M688.154 543.465C696.431 541.271 704.911 546.239 707.045 554.532C709.179 562.825 704.149 571.269 695.841 573.342C687.618 575.394 679.279 570.427 677.167 562.219C675.055 554.011 679.962 545.636 688.154 543.465Z"/>
	<path fill="#212E3E" transform="scale(0.65918 0.396484)" d="M768.26 536.67C768.885 536.653 769.511 536.657 770.136 536.68C775.42 536.912 780.563 538.845 784.054 542.929C788.635 548.288 788.801 554.25 788.429 560.885C777.071 561.047 765.709 560.689 754.348 560.882C754.906 562.625 755.491 564.361 756.344 565.986C758.295 569.707 761.88 572.656 765.912 573.821C770.687 575.2 775.222 573.991 779.479 571.706L782.927 568.643C784.212 570.044 785.387 571.554 786.594 573.023C783.207 576.026 779.834 578.258 775.388 579.378C769.364 580.894 762.842 580.043 757.618 576.61C752.806 573.475 749.529 568.466 748.587 562.8C747.584 556.813 748.492 549.922 752.198 544.966C756.151 539.682 761.93 537.469 768.26 536.67Z"/>
	<path fill="#F7F8F7" transform="scale(0.65918 0.396484)" d="M766.266 542.594C769.909 542.425 773.325 542.579 776.533 544.531C780.725 547.081 782.14 551.295 783.129 555.805L771.823 555.917L754.258 555.935C754.786 553.886 755.432 551.852 756.418 549.971C758.617 545.776 761.885 543.955 766.266 542.594Z"/>
	<path fill="#212E3E" transform="scale(0.65918 0.396484)" d="M615.964 536.584C622.671 536.065 627.38 537.625 633.125 540.924L631.026 546.172C628.155 544.672 625.02 543.243 621.804 542.723C618.699 542.221 614.834 542.934 612.352 544.956C611.323 545.795 610.518 546.977 610.498 548.349C610.4 554.936 627.122 556.135 632.578 561.52C632.713 561.652 632.844 561.788 632.976 561.922C633.532 563.604 634.15 565.498 634.311 567.269C634.571 570.116 633.604 573.146 631.675 575.265C627.989 579.313 622.416 579.932 617.274 580.066C611.336 579.378 606.99 577.66 601.967 574.536L604.613 569.046C609.297 572.858 614.222 574.956 620.395 574.462C623.591 574.206 625.762 572.829 627.681 570.275C628.405 569.312 628.609 568.475 628.47 567.279C625.608 561.772 616.267 561.156 611.038 558.902C607.962 557.576 605.195 555.326 604.1 552.066C603.254 549.546 603.376 546.138 604.624 543.766C606.816 539.604 611.694 537.744 615.964 536.584Z"/>
	<path fill="#212E3E" transform="scale(0.65918 0.396484)" d="M646.303 527.658C648.462 527.63 650.633 527.712 652.792 527.745L652.936 537.98C655.892 538.005 661.193 536.784 663.811 537.92C665.123 538.49 665.159 538.752 665.668 540.002C665.505 540.801 665.566 541.443 664.925 542.018C662.575 544.128 655.92 543.171 652.832 543.191C652.504 550.207 651.414 564.228 653.438 570.5C653.86 571.808 654.702 573.602 656.078 574.114C658.551 575.033 661.865 573.442 664.231 572.625L665.072 573.11C665.404 574.699 665.831 575.679 665.328 577.243C663.418 579.208 661.572 580.057 658.803 580.147C655.235 580.263 651.191 579.182 648.655 576.545C644.089 571.797 645.917 550.971 645.971 543.671L639.192 543.912C639.271 542.123 639.179 540.461 640.124 538.875C641.754 537.815 644.092 538.243 645.968 538.317C645.928 534.995 645.423 530.835 646.303 527.658Z"/>
	<path fill="#212E3E" transform="scale(0.65918 0.396484)" d="M357.034 380.126C359.201 380.209 361.272 380.566 363.2 381.594C365.93 383.051 367.788 385.554 368.543 388.541C369.469 392.317 368.809 396.307 366.717 399.583C364.278 403.394 360.98 404.997 356.661 405.821C354.175 405.703 351.892 405.389 349.732 404.062C346.795 402.257 344.889 399.378 344.29 395.992C343.685 392.573 344.437 388.85 346.452 386.005C349.163 382.179 352.548 380.82 357.034 380.126Z"/>
	<path fill="#212E3E" transform="scale(0.65918 0.396484)" d="M741.915 536.948L743.755 536.962C744.673 537.927 744.539 538.551 744.478 539.811C744.455 540.299 744.383 541.414 744.228 541.824C743.714 543.181 735.88 546.069 734.175 547.684C728.659 552.906 730.434 571.925 730.476 579.247C728.532 579.404 726.02 579.935 724.214 579.123C723.276 577.733 723.482 576.889 723.448 575.237L723.393 537.843L729.701 537.62L729.946 546.77C733.385 542.025 736.467 539.212 741.915 536.948Z"/>
	<path fill="#212E3E" transform="scale(0.65918 0.396484)" d="M780.08 454.059C781.593 453.975 783.35 453.947 784.813 454.384C787.149 455.082 789.191 456.84 790.282 459.01C791.617 461.665 791.575 464.883 790.549 467.629C789.189 471.265 786.906 473.082 783.493 474.689C781.738 474.917 780.046 475.102 778.338 474.496C775.857 473.602 773.875 471.691 772.891 469.244C771.648 466.152 771.77 462.679 773.226 459.682C774.733 456.518 776.912 455.257 780.08 454.059Z"/>
</svg>
